<?xml version="1.0" encoding="UTF-8" standalone="no"?>
<svg width="256px" height="256px" viewBox="0 0 90 90" version="1.1" xmlns="http://www.w3.org/2000/svg" xmlns:xlink="http://www.w3.org/1999/xlink">
    <!-- Generator: Sketch 50.2 (55047) - http://www.bohemiancoding.com/sketch -->
    <title>hidden-hover</title>
    <desc>Created with Sketch.</desc>
    <defs>
        <path d="M44.5,86 C22.3563253,86 4,67.6436747 4,45.5 C4,22.5222934 22.1929323,4 44.5,4 C67.6436747,4 86,22.3563253 86,45.5 C86,67.8070677 67.4777066,86 44.5,86 Z M44.5,81 C64.7361634,81 81,65.0253649 81,45.5 C81,25.117749 64.882251,9 44.5,9 C24.9746351,9 9,25.2638366 9,45.5 C9,64.882251 25.117749,81 44.5,81 Z M42.5,44.5 L29,31 L32,28 L45.5,41.5 L59,28 L62,31 L48.5,44.5 L62,58 L59,61 L45.5,47.5 L32,61 L29,58 L42.5,44.5 Z" id="path-1"></path>
        <filter x="-9.1%" y="-9.1%" width="118.3%" height="118.3%" filterUnits="objectBoundingBox" id="filter-2">
            <feOffset dx="0" dy="0" in="SourceAlpha" result="shadowOffsetOuter1"></feOffset>
            <feGaussianBlur stdDeviation="2.5" in="shadowOffsetOuter1" result="shadowBlurOuter1"></feGaussianBlur>
            <feComposite in="shadowBlurOuter1" in2="SourceAlpha" operator="out" result="shadowBlurOuter1"></feComposite>
            <feColorMatrix values="0 0 0 0 0.309803922   0 0 0 0 0.309803922   0 0 0 0 0.309803922  0 0 0 0.5 0" type="matrix" in="shadowBlurOuter1"></feColorMatrix>
        </filter>
    </defs>
    <g id="hidden-hover" stroke="none" stroke-width="1" fill="none" fill-rule="evenodd">
        <g fill-rule="nonzero">
            <use fill="black" fill-opacity="1" filter="url(#filter-2)" xlink:href="#path-1"></use>
            <use fill-opacity="0.5" fill="#EEEEEE" fill-rule="evenodd" xlink:href="#path-1"></use>
        </g>
        <rect id="bound" x="0" y="0" width="90" height="90"></rect>
    </g>
</svg>