<?xml version="1.0" encoding="UTF-8" standalone="no"?>
<svg width="256px" height="256px" viewBox="0 0 90 90" version="1.1" xmlns="http://www.w3.org/2000/svg" xmlns:xlink="http://www.w3.org/1999/xlink">
    <!-- Generator: Sketch 50.2 (55047) - http://www.bohemiancoding.com/sketch -->
    <title>hidden-default</title>
    <desc>Created with Sketch.</desc>
    <defs>
        <path d="M42.5,44.5 L29,31 L32,28 L45.5,41.5 L59,28 L62,31 L48.5,44.5 L62,58 L59,61 L45.5,47.5 L32,61 L29,58 L42.5,44.5 Z" id="path-1"></path>
        <filter x="-36.4%" y="-36.4%" width="172.7%" height="172.7%" filterUnits="objectBoundingBox" id="filter-2">
            <feOffset dx="0" dy="0" in="SourceAlpha" result="shadowOffsetOuter1"></feOffset>
            <feMorphology radius="3" operator="erode" in="SourceAlpha" result="shadowInner"></feMorphology>
            <feOffset dx="0" dy="0" in="shadowInner" result="shadowInner"></feOffset>
            <feComposite in="shadowOffsetOuter1" in2="shadowInner" operator="out" result="shadowOffsetOuter1"></feComposite>
            <feGaussianBlur stdDeviation="4" in="shadowOffsetOuter1" result="shadowBlurOuter1"></feGaussianBlur>
            <feColorMatrix values="0 0 0 0 0.309803922   0 0 0 0 0.309803922   0 0 0 0 0.309803922  0 0 0 0.3 0" type="matrix" in="shadowBlurOuter1"></feColorMatrix>
        </filter>
    </defs>
    <g id="hidden-default" stroke="none" stroke-width="1" fill="none" fill-rule="evenodd">
        <g>
            <use fill="black" fill-opacity="1" filter="url(#filter-2)" xlink:href="#path-1"></use>
            <path stroke-opacity="0.6" stroke="#FFFFFF" stroke-width="3" d="M31.1213203,58 L32,58.8786797 L45.5,45.3786797 L59,58.8786797 L59.8786797,58 L46.3786797,44.5 L59.8786797,31 L59,30.1213203 L45.5,43.6213203 L32,30.1213203 L31.1213203,31 L44.6213203,44.5 L31.1213203,58 Z" stroke-linejoin="square"></path>
        </g>
        <rect id="bound" x="0" y="0" width="90" height="90"></rect>
    </g>
</svg>