<svg width="100" height="75" viewBox="0 0 100 75" fill="none" xmlns="http://www.w3.org/2000/svg">
<path d="M6 1C3.23858 1 1 3.23858 1 6V68.7023C1 71.4637 3.23858 73.7023 6 73.7023H94C96.7614 73.7023 99 71.4637 99 68.7023V6C99 3.23858 96.7614 1 94 1H6Z" fill="#F5F4F3" stroke="#FF3158" stroke-width="2"/>
<path d="M8.26094 69.9387C10.4221 69.9387 12.174 68.0847 12.174 65.7976C12.174 63.5105 10.4221 61.6565 8.26094 61.6565C6.09983 61.6565 4.3479 63.5105 4.3479 65.7976C4.3479 68.0847 6.09983 69.9387 8.26094 69.9387Z" fill="#FF3158" fill-opacity="0.5"/>
<path d="M19.1303 69.9387C21.2914 69.9387 23.0434 68.0847 23.0434 65.7976C23.0434 63.5105 21.2914 61.6565 19.1303 61.6565C16.9692 61.6565 15.2173 63.5105 15.2173 65.7976C15.2173 68.0847 16.9692 69.9387 19.1303 69.9387Z" fill="#FF3158" fill-opacity="0.5"/>
<path d="M90.8696 69.9387C93.0307 69.9387 94.7826 68.0847 94.7826 65.7976C94.7826 63.5105 93.0307 61.6565 90.8696 61.6565C88.7085 61.6565 86.9565 63.5105 86.9565 65.7976C86.9565 68.0847 88.7085 69.9387 90.8696 69.9387Z" fill="#FF3158" fill-opacity="0.5"/>
</svg>
