<svg width="100" height="75" viewBox="0 0 100 75" fill="none" xmlns="http://www.w3.org/2000/svg">
<path d="M6 1C3.23858 1 1 3.23858 1 6V69C1 71.7614 3.23858 74 6 74H94C96.7614 74 99 71.7614 99 69V6C99 3.23858 96.7614 1 94 1H6Z" fill="#F7F7F7" stroke="#FF3158" stroke-width="2"/>
<path d="M59 35.7679C60.3333 36.5377 60.3333 38.4623 59 39.2321L47.75 45.7272C46.4167 46.497 44.75 45.5348 44.75 43.9952L44.75 31.0048C44.75 29.4652 46.4167 28.503 47.75 29.2728L59 35.7679Z" fill="#FF3158"/>
<path d="M39.1468 69H25.7972C25.3569 69 25 69.3569 25 69.7972C25 70.2375 25.3569 70.5944 25.7972 70.5944H39.1468C39.587 70.5944 39.944 70.2375 39.944 69.7972C39.944 69.3569 39.587 69 39.1468 69Z" fill="#FF3158"/>
<path d="M21.1468 69H7.79718C7.35691 69 7 69.3569 7 69.7972C7 70.2375 7.35691 70.5944 7.79718 70.5944H21.1468C21.587 70.5944 21.944 70.2375 21.944 69.7972C21.944 69.3569 21.587 69 21.1468 69Z" fill="#FF3158"/>
<rect opacity="0.5" x="7" y="51" width="42" height="12" rx="1" fill="#FF3158"/>
<path d="M75.1468 69H61.7972C61.3569 69 61 69.3569 61 69.7972C61 70.2375 61.3569 70.5944 61.7972 70.5944H75.1468C75.587 70.5944 75.944 70.2375 75.944 69.7972C75.944 69.3569 75.587 69 75.1468 69Z" fill="#FF3158"/>
<path d="M93.1468 69H79.7972C79.3569 69 79 69.3569 79 69.7972C79 70.2375 79.3569 70.5944 79.7972 70.5944H93.1468C93.587 70.5944 93.944 70.2375 93.944 69.7972C93.944 69.3569 93.587 69 93.1468 69Z" fill="#FF3158"/>
<path d="M57.1468 69H43.7972C43.3569 69 43 69.3569 43 69.7972C43 70.2375 43.3569 70.5944 43.7972 70.5944H57.1468C57.587 70.5944 57.944 70.2375 57.944 69.7972C57.944 69.3569 57.587 69 57.1468 69Z" fill="#FF3158"/>
</svg>
